<?xml version="1.0" encoding="UTF-8"?><svg xmlns="http://www.w3.org/2000/svg" viewBox="0 0 2551.18 1700.79"><defs><style>.cls-1{fill:rgba(18,114,138,.8);}.cls-1,.cls-2,.cls-3,.cls-4,.cls-5,.cls-6{opacity:.85;stroke:rgba(1,1,1,.5);stroke-miterlimit:5;stroke-width:3.82px;}.cls-7,.cls-8,.cls-9,.cls-10,.cls-11,.cls-12,.cls-13,.cls-14,.cls-15,.cls-16{fill:none;}.cls-7,.cls-10,.cls-11,.cls-15,.cls-16{stroke-width:9.37px;}.cls-7,.cls-14{stroke:#645329;}.cls-17{letter-spacing:.04em;}.cls-8{stroke-width:37.47px;}.cls-8,.cls-11{stroke:#fbd57a;}.cls-9{stroke-width:28.11px;}.cls-9,.cls-16{stroke:#e2b95d;}.cls-18{letter-spacing:.03em;}.cls-10,.cls-12{stroke:#ae9455;}.cls-19{isolation:isolate;}.cls-2{fill:rgba(75,189,202,.8);}.cls-12{stroke-width:32.79px;}.cls-20{fill:#8c8c8c;font-family:Montserrat-Bold, Montserrat;font-size:48px;}.cls-21{letter-spacing:.04em;}.cls-3{fill:rgba(32,156,175,.8);}.cls-4{fill:rgba(13,36,54,.8);}.cls-13{stroke-width:23.42px;}.cls-13,.cls-15{stroke:#e9d3a2;}.cls-14{stroke-width:18.74px;}.cls-22{mix-blend-mode:overlay;opacity:.6;}.cls-23{letter-spacing:.04em;}.cls-5{fill:rgba(12,72,97,.8);}.cls-6{fill:rgba(130,204,213,.8);}</style></defs><g class="cls-19"><g id="Capa_10"><g class="cls-22"><g><path id="dot-0" class="cls-6" d="M750.37,854.78c0,17-18.52,29.68-36.49,18.94-5.86-3.5-9.3-9.98-9.3-16.81v-3.05c0-8.07,4.34-15.71,11.59-19.26,17.21-8.42,34.2,3.89,34.21,20.17v1.42" vector-effect="non-scaling-stroke"/><path id="dot-1" class="cls-2" d="M848.08,854.78c0,17.02-18.57,29.71-36.56,18.9-5.81-3.49-9.24-9.91-9.24-16.69v-3.16c0-8.05,4.34-15.66,11.56-19.21,17.22-8.45,34.23,3.86,34.24,20.15v1.42" vector-effect="non-scaling-stroke"/><path id="dot-2" class="cls-3" d="M881.66,822.93c0,17.03-18.59,29.73-36.59,18.88-5.79-3.49-9.21-9.88-9.21-16.64v-3.23c0-8.02,4.33-15.61,11.53-19.16,17.24-8.48,34.27,3.84,34.27,20.14,0,0,0-.32,0-.32" vector-effect="non-scaling-stroke"/><path id="dot-3" class="cls-2" d="M982.42,854.78c0,17.03-18.59,29.73-36.59,18.88-5.79-3.49-9.21-9.88-9.21-16.64v-3.23c0-8.02,4.33-15.61,11.53-19.16,17.24-8.48,34.27,3.84,34.27,20.14v1.42" vector-effect="non-scaling-stroke"/><path id="dot-4" class="cls-2" d="M988.53,808.2c0,17.03-18.59,29.73-36.59,18.88-5.79-3.49-9.21-9.88-9.21-16.64v-3.23c0-8.02,4.33-15.61,11.53-19.16,17.24-8.48,34.27,3.84,34.27,20.14,0,0,0-.86,0-.86" vector-effect="non-scaling-stroke"/><path id="dot-5" class="cls-6" d="M1009.9,894.16c0,17-18.52,29.68-36.49,18.94-5.86-3.5-9.3-9.98-9.3-16.81v-3.05c0-8.07,4.34-15.71,11.59-19.26,17.21-8.42,34.2,3.89,34.21,20.17,0,0,0-1.33,0-1.33" vector-effect="non-scaling-stroke"/><path id="dot-6" class="cls-5" d="M1058.75,854.78c0,17.03-18.59,29.73-36.59,18.88-5.79-3.49-9.21-9.88-9.21-16.64v-3.23c0-8.02,4.33-15.61,11.53-19.16,17.24-8.48,34.27,3.84,34.27,20.14v1.42" vector-effect="non-scaling-stroke"/><path id="dot-7" class="cls-6" d="M1067.91,808.44c0,17.03-18.59,29.73-36.59,18.88-5.79-3.49-9.21-9.88-9.21-16.64v-3.23c0-8.02,4.33-15.61,11.53-19.16,17.24-8.48,34.27,3.84,34.27,20.14,0,0,0-1.1,0-1.1" vector-effect="non-scaling-stroke"/><path id="dot-8" class="cls-1" d="M1080.12,897.22c0,17.03-18.59,29.73-36.59,18.88-5.79-3.49-9.21-9.88-9.21-16.64v-3.23c0-8.02,4.33-15.61,11.53-19.16,17.24-8.48,34.27,3.84,34.27,20.14,0,0,0-1.34,0-1.34" vector-effect="non-scaling-stroke"/><path id="dot-9" class="cls-1" d="M1080.12,944.38c0,17.03-18.59,29.73-36.59,18.88-5.79-3.49-9.21-9.88-9.21-16.64v-3.23c0-8.02,4.33-15.61,11.53-19.16,17.24-8.48,34.27,3.84,34.27,20.14v.36" vector-effect="non-scaling-stroke"/><path id="dot-10" class="cls-6" d="M1110.65,854.78c0,17.03-18.59,29.73-36.59,18.88-5.79-3.49-9.21-9.88-9.21-16.64v-3.23c0-8.02,4.33-15.61,11.53-19.16,17.24-8.48,34.27,3.84,34.27,20.14v1.42" vector-effect="non-scaling-stroke"/><path id="dot-11" class="cls-5" d="M1119.81,809.02c0,17.03-18.59,29.73-36.59,18.88-5.79-3.49-9.21-9.88-9.21-16.64v-3.23c0-8.02,4.33-15.61,11.53-19.16,17.24-8.48,34.27,3.84,34.27,20.14v1.37" vector-effect="non-scaling-stroke"/><path id="dot-12" class="cls-2" d="M1122.87,918.69c0,17-18.52,29.68-36.49,18.94-5.86-3.5-9.3-9.98-9.3-16.81v-3.05c0-8.07,4.34-15.71,11.59-19.26,17.21-8.42,34.2,3.89,34.21,20.17,0,0,0-1.43,0-1.43" vector-effect="non-scaling-stroke"/><path id="dot-13" class="cls-2" d="M1122.87,761.9c0,17.02-18.57,29.71-36.56,18.9-5.81-3.49-9.24-9.91-9.24-16.69v-3.16c0-8.05,4.34-15.66,11.56-19.21,17.22-8.45,34.23,3.86,34.24,20.15,0,0,0-.35,0-.35" vector-effect="non-scaling-stroke"/><path id="dot-14" class="cls-5" d="M1141.19,961.43c0,17-18.52,29.68-36.49,18.94-5.86-3.5-9.3-9.98-9.3-16.81v-3.05c0-8.07,4.34-15.71,11.59-19.26,17.21-8.42,34.2,3.89,34.21,20.17,0,0,0-1.43,0-1.43" vector-effect="non-scaling-stroke"/><path id="dot-15" class="cls-5" d="M1147.29,721.7c0,17-18.52,29.68-36.49,18.94-5.86-3.5-9.3-9.98-9.3-16.81v-3.05c0-8.07,4.34-15.71,11.59-19.26,17.21-8.42,34.2,3.89,34.21,20.17v.15" vector-effect="non-scaling-stroke"/><path id="dot-16" class="cls-3" d="M1159.51,854.78c0,17.03-18.59,29.73-36.59,18.88-5.79-3.49-9.21-9.88-9.21-16.64v-3.23c0-8.02,4.33-15.61,11.53-19.16,17.24-8.48,34.27,3.84,34.27,20.14v1.42" vector-effect="non-scaling-stroke"/><path id="dot-17" class="cls-1" d="M1165.61,795.41c0,17.03-18.59,29.73-36.59,18.88-5.79-3.49-9.21-9.88-9.21-16.64v-3.23c0-8.02,4.33-15.61,11.53-19.16,17.24-8.48,34.27,3.84,34.27,20.14,0,0,0-.28,0-.28" vector-effect="non-scaling-stroke"/><path id="dot-18" class="cls-2" d="M1165.61,901.39c0,17-18.52,29.68-36.49,18.94-5.86-3.5-9.3-9.98-9.3-16.81v-3.05c0-8.07,4.34-15.71,11.59-19.26,17.21-8.42,34.2,3.89,34.21,20.17v.6" vector-effect="non-scaling-stroke"/><path id="dot-19" class="cls-6" d="M1174.77,996.84c0,17-18.52,29.68-36.49,18.94-5.86-3.5-9.3-9.98-9.3-16.81v-3.05c0-8.07,4.34-15.71,11.59-19.26,17.21-8.42,34.2,3.89,34.21,20.17,0,0,0-.2,0-.2" vector-effect="non-scaling-stroke"/><path id="dot-20" class="cls-6" d="M1180.88,688.32c0,17-18.52,29.68-36.49,18.94-5.86-3.5-9.3-9.98-9.3-16.81v-3.05c0-8.07,4.34-15.71,11.59-19.26,17.21-8.42,34.2,3.89,34.21,20.17,0,0,0-.05,0-.05" vector-effect="non-scaling-stroke"/><path id="dot-21" class="cls-4" d="M1190.04,941.6c0,17.03-18.59,29.73-36.59,18.88-5.79-3.49-9.21-9.88-9.21-16.64v-3.23c0-8.02,4.33-15.61,11.53-19.16,17.24-8.48,34.27,3.84,34.27,20.14v.09" vector-effect="non-scaling-stroke"/><path id="dot-22" class="cls-4" d="M1193.09,756.25c0,17-18.52,29.68-36.49,18.94-5.86-3.5-9.3-9.98-9.3-16.81v-3.05c0-8.07,4.34-15.71,11.59-19.26,17.21-8.42,34.2,3.89,34.21,20.17,0,0,0-.81,0-.81" vector-effect="non-scaling-stroke"/><path id="dot-23" class="cls-1" d="M1217.52,854.78c0,17.03-18.59,29.73-36.59,18.88-5.79-3.49-9.21-9.88-9.21-16.64v-3.23c0-8.02,4.33-15.61,11.53-19.16,17.24-8.48,34.27,3.84,34.27,20.14v1.42" vector-effect="non-scaling-stroke"/><path id="dot-24" class="cls-5" d="M1235.84,811.48c0,17-18.52,29.68-36.49,18.94-5.86-3.5-9.3-9.98-9.3-16.81v-3.05c0-8.07,4.34-15.71,11.59-19.26,17.21-8.42,34.2,3.89,34.21,20.17,0,0,0-1.08,0-1.08" vector-effect="non-scaling-stroke"/><path id="dot-25" class="cls-3" d="M1254.16,883.55c0,17-18.52,29.68-36.49,18.94-5.86-3.5-9.3-9.98-9.3-16.81v-3.05c0-8.07,4.34-15.71,11.59-19.26,17.21-8.42,34.2,3.89,34.21,20.17v.12" vector-effect="non-scaling-stroke"/><path id="dot-26" class="cls-3" d="M1254.16,930.71c0,17.03-18.59,29.73-36.59,18.88-5.79-3.49-9.21-9.88-9.21-16.64v-3.23c0-8.02,4.33-15.61,11.53-19.16,17.24-8.48,34.27,3.84,34.27,20.14,0,0,0-1.24,0-1.24" vector-effect="non-scaling-stroke"/><path id="dot-27" class="cls-3" d="M1275.53,842.3c0,17.03-18.59,29.73-36.59,18.88-5.79-3.49-9.21-9.88-9.21-16.64v-3.23c0-8.02,4.33-15.61,11.53-19.16,17.24-8.48,34.27,3.84,34.27,20.14,0,0,0-1.37,0-1.37" vector-effect="non-scaling-stroke"/><path id="dot-28" class="cls-1" d="M1306.06,878.47c0,17.03-18.59,29.73-36.59,18.88-5.79-3.49-9.21-9.88-9.21-16.64v-3.23c0-8.02,4.33-15.61,11.53-19.16,17.24-8.48,34.27,3.84,34.27,20.14,0,0,0-.9,0-.9" vector-effect="non-scaling-stroke"/><path id="dot-29" class="cls-4" d="M1315.22,813.56c0,17.03-18.59,29.73-36.59,18.88-5.79-3.49-9.21-9.88-9.21-16.64v-3.23c0-8.02,4.33-15.61,11.53-19.16,17.24-8.48,34.27,3.84,34.27,20.14,0,0,0-.11,0-.11" vector-effect="non-scaling-stroke"/><path id="dot-30" class="cls-1" d="M1333.54,918.03c0,17-18.52,29.68-36.49,18.94-5.86-3.5-9.3-9.98-9.3-16.81v-3.05c0-8.07,4.34-15.71,11.59-19.26,17.21-8.42,34.2,3.89,34.21,20.17,0,0,0-.77,0-.77" vector-effect="non-scaling-stroke"/><path id="dot-31" class="cls-4" d="M1336.59,772.69c0,17-18.52,29.68-36.49,18.94-5.86-3.5-9.3-9.98-9.3-16.81v-3.05c0-8.07,4.34-15.71,11.59-19.26,17.21-8.42,34.2,3.89,34.21,20.17v1.07" vector-effect="non-scaling-stroke"/><path id="dot-32" class="cls-5" d="M1400.71,854.78c0,17-18.52,29.68-36.49,18.94-5.86-3.5-9.3-9.98-9.3-16.81v-3.05c0-8.07,4.34-15.71,11.59-19.26,17.21-8.42,34.2,3.89,34.21,20.17v1.42" vector-effect="non-scaling-stroke"/><path id="dot-33" class="cls-4" d="M1412.92,809.42c0,17.03-18.59,29.73-36.59,18.88-5.79-3.49-9.21-9.88-9.21-16.64v-3.23c0-8.02,4.33-15.61,11.53-19.16,17.24-8.48,34.27,3.84,34.27,20.14v.97" vector-effect="non-scaling-stroke"/><path id="dot-34" class="cls-4" d="M1425.14,894.64c0,17.03-18.59,29.73-36.59,18.88-5.79-3.49-9.21-9.88-9.21-16.64v-3.23c0-8.02,4.33-15.61,11.53-19.16,17.24-8.48,34.27,3.84,34.27,20.14v1.24" vector-effect="non-scaling-stroke"/><path id="dot-35" class="cls-3" d="M1437.35,940.7c0,17-18.52,29.68-36.49,18.94-5.86-3.5-9.3-9.98-9.3-16.81v-3.05c0-8.07,4.34-15.71,11.59-19.26,17.21-8.42,34.2,3.89,34.21,20.17v.99" vector-effect="non-scaling-stroke"/><path id="dot-192" class="cls-6" d="M487.8,854.78c0,17-18.52,29.68-36.49,18.94-5.86-3.5-9.3-9.98-9.3-16.81v-3.05c0-8.07,4.34-15.71,11.59-19.26,17.21-8.42,34.2,3.89,34.21,20.17v1.42" vector-effect="non-scaling-stroke"/><path id="dot-193" class="cls-2" d="M1190.04,1040.64c0,17.03-18.59,29.73-36.59,18.88-5.79-3.49-9.21-9.88-9.21-16.64v-3.23c0-8.02,4.33-15.61,11.53-19.16,17.24-8.48,34.27,3.84,34.27,20.14,0,0,0-1.25,0-1.25" vector-effect="non-scaling-stroke"/><path id="dot-194" class="cls-3" d="M1199.2,645.29c0,17.02-18.57,29.71-36.56,18.9-5.81-3.49-9.24-9.91-9.24-16.69v-3.16c0-8.05,4.34-15.66,11.56-19.21,17.22-8.45,34.23,3.86,34.24,20.15v.23" vector-effect="non-scaling-stroke"/><path id="dot-195" class="cls-6" d="M1217.52,1080.5c0,17.03-18.59,29.73-36.59,18.88-5.79-3.49-9.21-9.88-9.21-16.64v-3.23c0-8.02,4.33-15.61,11.53-19.16,17.24-8.48,34.27,3.84,34.27,20.14,0,0,0-1.42,0-1.42" vector-effect="non-scaling-stroke"/><path id="dot-196" class="cls-2" d="M1257.21,770.29c0,17.03-18.59,29.73-36.59,18.88-5.79-3.49-9.21-9.88-9.21-16.64v-3.23c0-8.02,4.33-15.61,11.53-19.16,17.24-8.48,34.27,3.84,34.27,20.14v.41" vector-effect="non-scaling-stroke"/><path id="dot-197" class="cls-5" d="M1266.37,976.32c0,17-18.52,29.68-36.49,18.94-5.86-3.5-9.3-9.98-9.3-16.81v-3.05c0-8.07,4.34-15.71,11.59-19.26,17.21-8.42,34.2,3.89,34.21,20.17,0,0,0-1.05,0-1.05" vector-effect="non-scaling-stroke"/><path id="dot-198" class="cls-1" d="M1287.74,734.97c0,17-18.52,29.68-36.49,18.94-5.86-3.5-9.3-9.98-9.3-16.81v-3.05c0-8.07,4.34-15.71,11.59-19.26,17.21-8.42,34.2,3.89,34.21,20.17,0,0,0-.9,0-.9" vector-effect="non-scaling-stroke"/><path id="dot-199" class="cls-2" d="M1293.85,1014.7c0,17-18.52,29.68-36.49,18.94-5.86-3.5-9.3-9.98-9.3-16.81v-3.05c0-8.07,4.34-15.71,11.59-19.26,17.21-8.42,34.2,3.89,34.21,20.17v.26" vector-effect="non-scaling-stroke"/><path id="dot-200" class="cls-5" d="M1299.95,689.1c0,17.03-18.59,29.73-36.59,18.88-5.79-3.49-9.21-9.88-9.21-16.64v-3.23c0-8.02,4.33-15.61,11.53-19.16,17.24-8.48,34.27,3.84,34.27,20.14,0,0,0-.83,0-.83" vector-effect="non-scaling-stroke"/><path id="dot-201" class="cls-4" d="M1299.95,1061.32c0,17.03-18.59,29.73-36.59,18.88-5.79-3.49-9.21-9.88-9.21-16.64v-3.23c0-8.02,4.33-15.61,11.53-19.16,17.24-8.48,34.27,3.84,34.27,20.14,0,0,0-.56,0-.56" vector-effect="non-scaling-stroke"/><path id="dot-202" class="cls-6" d="M1306.06,642.14c0,17-18.52,29.68-36.49,18.94-5.86-3.5-9.3-9.98-9.3-16.81v-3.05c0-8.07,4.34-15.71,11.59-19.26,17.21-8.42,34.2,3.89,34.21,20.17v.33" vector-effect="non-scaling-stroke"/><path id="dot-203" class="cls-1" d="M1306.06,1108.1c0,17-18.52,29.68-36.49,18.94-5.86-3.5-9.3-9.98-9.3-16.81v-3.05c0-8.07,4.34-15.71,11.59-19.26,17.21-8.42,34.2,3.89,34.21,20.17v1.52" vector-effect="non-scaling-stroke"/><path id="dot-204" class="cls-5" d="M1309.11,595.3c0,17-18.52,29.68-36.49,18.94-5.86-3.5-9.3-9.98-9.3-16.81v-3.05c0-8.07,4.34-15.71,11.59-19.26,17.21-8.42,34.2,3.89,34.21,20.17v1.37" vector-effect="non-scaling-stroke"/><path id="dot-205" class="cls-6" d="M1312.17,960.09c0,17-18.52,29.68-36.49,18.94-5.86-3.5-9.3-9.98-9.3-16.81v-3.05c0-8.07,4.34-15.71,11.59-19.26,17.21-8.42,34.2,3.89,34.21,20.17,0,0,0-.09,0-.09" vector-effect="non-scaling-stroke"/><path id="dot-206" class="cls-4" d="M1318.27,1153.54c0,17-18.52,29.68-36.49,18.94-5.86-3.5-9.3-9.98-9.3-16.81v-3.05c0-8.07,4.34-15.71,11.59-19.26,17.21-8.42,34.2,3.89,34.21,20.17,0,0,0-1.18,0-1.18" vector-effect="non-scaling-stroke"/><path id="dot-207" class="cls-2" d="M1324.38,550.01c0,17-18.52,29.68-36.49,18.94-5.86-3.5-9.3-9.98-9.3-16.81v-3.05c0-8.07,4.34-15.71,11.59-19.26,17.21-8.42,34.2,3.89,34.21,20.17v.86" vector-effect="non-scaling-stroke"/><path id="dot-208" class="cls-5" d="M1327.43,1200.24c0,17.03-18.59,29.73-36.59,18.88-5.79-3.49-9.21-9.88-9.21-16.64v-3.23c0-8.02,4.33-15.61,11.53-19.16,17.24-8.48,34.27,3.84,34.27,20.14v.97" vector-effect="non-scaling-stroke"/><path id="dot-209" class="cls-1" d="M1336.59,725.56c0,17-18.52,29.68-36.49,18.94-5.86-3.5-9.3-9.98-9.3-16.81v-3.05c0-8.07,4.34-15.71,11.59-19.26,17.21-8.42,34.2,3.89,34.21,20.17,0,0,0-.65,0-.65" vector-effect="non-scaling-stroke"/><path id="dot-210" class="cls-1" d="M1339.65,997.66c0,17-18.52,29.68-36.49,18.94-5.86-3.5-9.3-9.98-9.3-16.81v-3.05c0-8.07,4.34-15.71,11.59-19.26,17.21-8.42,34.2,3.89,34.21,20.17,0,0,0-1.02,0-1.02" vector-effect="non-scaling-stroke"/><path id="dot-211" class="cls-4" d="M1339.65,506.02c0,17-18.52,29.68-36.49,18.94-5.86-3.5-9.3-9.98-9.3-16.81v-3.05c0-8.07,4.34-15.71,11.59-19.26,17.21-8.42,34.2,3.89,34.21,20.17,0,0,0-.94,0-.94" vector-effect="non-scaling-stroke"/><path id="dot-212" class="cls-5" d="M1342.7,670.42c0,17.03-18.59,29.73-36.59,18.88-5.79-3.49-9.21-9.88-9.21-16.64v-3.23c0-8.02,4.33-15.61,11.53-19.16,17.24-8.48,34.27,3.84,34.27,20.14,0,0,0-.47,0-.47" vector-effect="non-scaling-stroke"/><path id="dot-213" class="cls-2" d="M1345.75,852.6c0,17-18.52,29.68-36.49,18.94-5.86-3.5-9.3-9.98-9.3-16.81v-3.05c0-8.07,4.34-15.71,11.59-19.26,17.21-8.42,34.2,3.89,34.21,20.17v.54" vector-effect="non-scaling-stroke"/><path id="dot-214" class="cls-6" d="M1354.91,1042.44c0,17-18.52,29.68-36.49,18.94-5.86-3.5-9.3-9.98-9.3-16.81v-3.05c0-8.07,4.34-15.71,11.59-19.26,17.21-8.42,34.2,3.89,34.21,20.17,0,0,0,0,0,0" vector-effect="non-scaling-stroke"/><path id="dot-215" class="cls-3" d="M1364.07,952.82c0,17-18.52,29.68-36.49,18.94-5.86-3.5-9.3-9.98-9.3-16.81v-3.05c0-8.07,4.34-15.71,11.59-19.26,17.21-8.42,34.2,3.89,34.21,20.17v1.08" vector-effect="non-scaling-stroke"/><path id="dot-216" class="cls-3" d="M1373.23,892.1c0,17-18.52,29.68-36.49,18.94-5.86-3.5-9.3-9.98-9.3-16.81v-3.05c0-8.07,4.34-15.71,11.59-19.26,17.21-8.42,34.2,3.89,34.21,20.17v.73" vector-effect="non-scaling-stroke"/><path id="dot-217" class="cls-4" d="M1385.44,771.97c0,17-18.52,29.68-36.49,18.94-5.86-3.5-9.3-9.98-9.3-16.81v-3.05c0-8.07,4.34-15.71,11.59-19.26,17.21-8.42,34.2,3.89,34.21,20.17,0,0,0-1.26,0-1.26" vector-effect="non-scaling-stroke"/><path id="dot-218" class="cls-3" d="M1394.6,725.74c0,17.03-18.59,29.73-36.59,18.88-5.79-3.49-9.21-9.88-9.21-16.64v-3.23c0-8.02,4.33-15.61,11.53-19.16,17.24-8.48,34.27,3.84,34.27,20.14,0,0,0-.83,0-.83" vector-effect="non-scaling-stroke"/><path id="dot-219" class="cls-1" d="M1409.87,979.76c0,17-18.52,29.68-36.49,18.94-5.86-3.5-9.3-9.98-9.3-16.81v-3.05c0-8.07,4.34-15.71,11.59-19.26,17.21-8.42,34.2,3.89,34.21,20.17,0,0,0-1.44,0-1.44" vector-effect="non-scaling-stroke"/><path id="dot-220" class="cls-5" d="M1419.03,685.88c0,17-18.52,29.68-36.49,18.94-5.86-3.5-9.3-9.98-9.3-16.81v-3.05c0-8.07,4.34-15.71,11.59-19.26,17.21-8.42,34.2,3.89,34.21,20.17,0,0,0-.67,0-.67" vector-effect="non-scaling-stroke"/><path id="dot-221" class="cls-4" d="M1437.35,768.49c0,17-18.52,29.68-36.49,18.94-5.86-3.5-9.3-9.98-9.3-16.81v-3.05c0-8.07,4.34-15.71,11.59-19.26,17.21-8.42,34.2,3.89,34.21,20.17,0,0,0-.84,0-.84" vector-effect="non-scaling-stroke"/><path id="dot-222" class="cls-6" d="M1455.67,854.78c0,17.03-18.59,29.73-36.59,18.88-5.79-3.49-9.21-9.88-9.21-16.64v-3.23c0-8.02,4.33-15.61,11.53-19.16,17.24-8.48,34.27,3.84,34.27,20.14v1.42" vector-effect="non-scaling-stroke"/><path id="dot-223" class="cls-4" d="M1455.67,724.94c0,17-18.52,29.68-36.49,18.94-5.86-3.5-9.3-9.98-9.3-16.81v-3.05c0-8.07,4.34-15.71,11.59-19.26,17.21-8.42,34.2,3.89,34.21,20.17,0,0,0-.03,0-.03" vector-effect="non-scaling-stroke"/><path id="dot-224" class="cls-3" d="M1464.83,808.66c0,17.03-18.59,29.73-36.59,18.88-5.79-3.49-9.21-9.88-9.21-16.64v-3.23c0-8.02,4.33-15.61,11.53-19.16,17.24-8.48,34.27,3.84,34.27,20.14,0,0,0-1.32,0-1.32" vector-effect="non-scaling-stroke"/><path id="dot-225" class="cls-1" d="M1467.88,974.6c0,17-18.52,29.68-36.49,18.94-5.86-3.5-9.3-9.98-9.3-16.81v-3.05c0-8.07,4.34-15.71,11.59-19.26,17.21-8.42,34.2,3.89,34.21,20.17v.67" vector-effect="non-scaling-stroke"/><path id="dot-226" class="cls-3" d="M1498.41,874.68c0,17-18.52,29.68-36.49,18.94-5.86-3.5-9.3-9.98-9.3-16.81v-3.05c0-8.07,4.34-15.71,11.59-19.26,17.21-8.42,34.2,3.89,34.21,20.17,0,0,0-.17,0-.17" vector-effect="non-scaling-stroke"/><path id="dot-227" class="cls-2" d="M1593.06,854.78c0,17-18.52,29.68-36.49,18.94-5.86-3.5-9.3-9.98-9.3-16.81v-3.05c0-8.07,4.34-15.71,11.59-19.26,17.21-8.42,34.2,3.89,34.21,20.17v1.42" vector-effect="non-scaling-stroke"/><path id="dot-384" class="cls-6" d="M1037.38,773.52c0,17-18.52,29.68-36.49,18.94-5.86-3.5-9.3-9.98-9.3-16.81v-3.05c0-8.07,4.34-15.71,11.59-19.26,17.21-8.42,34.2,3.89,34.21,20.17v.23" vector-effect="non-scaling-stroke"/><path id="dot-385" class="cls-6" d="M1046.54,975.53c0,17-18.52,29.68-36.49,18.94-5.86-3.5-9.3-9.98-9.3-16.81v-3.05c0-8.07,4.34-15.71,11.59-19.26,17.21-8.42,34.2,3.89,34.21,20.17,0,0,0-.26,0-.26" vector-effect="non-scaling-stroke"/><path id="dot-386" class="cls-1" d="M1055.7,730.44c0,17.03-18.59,29.73-36.59,18.88-5.79-3.49-9.21-9.88-9.21-16.64v-3.23c0-8.02,4.33-15.61,11.53-19.16,17.24-8.48,34.27,3.84,34.27,20.14v.57" vector-effect="non-scaling-stroke"/><path id="dot-387" class="cls-6" d="M1058.75,1020.82c0,17.02-18.57,29.71-36.56,18.9-5.81-3.49-9.24-9.91-9.24-16.69v-3.16c0-8.05,4.34-15.66,11.56-19.21,17.22-8.45,34.23,3.86,34.24,20.15v.25" vector-effect="non-scaling-stroke"/><path id="dot-388" class="cls-5" d="M1110.65,996.63c0,17-18.52,29.68-36.49,18.94-5.86-3.5-9.3-9.98-9.3-16.81v-3.05c0-8.07,4.34-15.71,11.59-19.26,17.21-8.42,34.2,3.89,34.21,20.17h0" vector-effect="non-scaling-stroke"/><path id="dot-389" class="cls-1" d="M1116.76,684.98c0,17.03-18.59,29.73-36.59,18.88-5.79-3.49-9.21-9.88-9.21-16.64v-3.23c0-8.02,4.33-15.61,11.53-19.16,17.24-8.48,34.27,3.84,34.27,20.14v.23" vector-effect="non-scaling-stroke"/><path id="dot-390" class="cls-6" d="M1147.29,1059.32c0,17.03-18.59,29.73-36.59,18.88-5.79-3.49-9.21-9.88-9.21-16.64v-3.23c0-8.02,4.33-15.61,11.53-19.16,17.24-8.48,34.27,3.84,34.27,20.14v1.44" vector-effect="non-scaling-stroke"/><path id="dot-391" class="cls-5" d="M1165.61,614.39c0,17-18.52,29.68-36.49,18.94-5.86-3.5-9.3-9.98-9.3-16.81v-3.05c0-8.07,4.34-15.71,11.59-19.26,17.21-8.42,34.2,3.89,34.21,20.17v.6" vector-effect="non-scaling-stroke"/><path id="dot-392" class="cls-6" d="M1177.83,1107.92c0,17.03-18.59,29.73-36.59,18.88-5.79-3.49-9.21-9.88-9.21-16.64v-3.23c0-8.02,4.33-15.61,11.53-19.16,17.24-8.48,34.27,3.84,34.27,20.14,0,0,0-1.36,0-1.36" vector-effect="non-scaling-stroke"/><path id="dot-393" class="cls-5" d="M1180.88,570.4c0,17-18.52,29.68-36.49,18.94-5.86-3.5-9.3-9.98-9.3-16.81v-3.05c0-8.07,4.34-15.71,11.59-19.26,17.21-8.42,34.2,3.89,34.21,20.17,0,0,0-1.21,0-1.21" vector-effect="non-scaling-stroke"/><path id="dot-394" class="cls-1" d="M1193.09,1152.12c0,17-18.52,29.68-36.49,18.94-5.86-3.5-9.3-9.98-9.3-16.81v-3.05c0-8.07,4.34-15.71,11.59-19.26,17.21-8.42,34.2,3.89,34.21,20.17v.24" vector-effect="non-scaling-stroke"/><path id="dot-395" class="cls-5" d="M1199.2,526.62c0,17.03-18.59,29.73-36.59,18.88-5.79-3.49-9.21-9.88-9.21-16.64v-3.23c0-8.02,4.33-15.61,11.53-19.16,17.24-8.48,34.27,3.84,34.27,20.14,0,0,0-.18,0-.18" vector-effect="non-scaling-stroke"/><path id="dot-396" class="cls-2" d="M1232.78,730.79c0,17-18.52,29.68-36.49,18.94-5.86-3.5-9.3-9.98-9.3-16.81v-3.05c0-8.07,4.34-15.71,11.59-19.26,17.21-8.42,34.2,3.89,34.21,20.17v.22" vector-effect="non-scaling-stroke"/><path id="dot-397" class="cls-1" d="M1251.1,687.96c0,17.03-18.59,29.73-36.59,18.88-5.79-3.49-9.21-9.88-9.21-16.64v-3.23c0-8.02,4.33-15.61,11.53-19.16,17.24-8.48,34.27,3.84,34.27,20.14v.31" vector-effect="non-scaling-stroke"/><path id="dot-398" class="cls-1" d="M1254.16,1042.12c0,17-18.52,29.68-36.49,18.94-5.86-3.5-9.3-9.98-9.3-16.81v-3.05c0-8.07,4.34-15.71,11.59-19.26,17.21-8.42,34.2,3.89,34.21,20.17v.32" vector-effect="non-scaling-stroke"/><path id="dot-399" class="cls-2" d="M1266.37,616.32c0,17.03-18.59,29.73-36.59,18.88-5.79-3.49-9.21-9.88-9.21-16.64v-3.23c0-8.02,4.33-15.61,11.53-19.16,17.24-8.48,34.27,3.84,34.27,20.14,0,0,0-1.33,0-1.33" vector-effect="non-scaling-stroke"/><path id="dot-400" class="cls-5" d="M1278.58,537.59c0,17-18.52,29.68-36.49,18.94-5.86-3.5-9.3-9.98-9.3-16.81v-3.05c0-8.07,4.34-15.71,11.59-19.26,17.21-8.42,34.2,3.89,34.21,20.17v1.07" vector-effect="non-scaling-stroke"/><path id="dot-401" class="cls-6" d="M1309.11,469.3c0,17-18.52,29.68-36.49,18.94-5.86-3.5-9.3-9.98-9.3-16.81v-3.05c0-8.07,4.34-15.71,11.59-19.26,17.21-8.42,34.2,3.89,34.21,20.17,0,0,0-.87,0-.87" vector-effect="non-scaling-stroke"/><path id="dot-402" class="cls-5" d="M1330.49,1247.08c0,17-18.52,29.68-36.49,18.94-5.86-3.5-9.3-9.98-9.3-16.81v-3.05c0-8.07,4.34-15.71,11.59-19.26,17.21-8.42,34.2,3.89,34.21,20.17,0,0,0-.08,0-.08" vector-effect="non-scaling-stroke"/><path id="dot-403" class="cls-2" d="M1348.81,439.72c0,17.03-18.59,29.73-36.59,18.88-5.79-3.49-9.21-9.88-9.21-16.64v-3.23c0-8.02,4.33-15.61,11.53-19.16,17.24-8.48,34.27,3.84,34.27,20.14v1.24" vector-effect="non-scaling-stroke"/><path id="dot-404" class="cls-2" d="M1348.81,623.58c0,17-18.52,29.68-36.49,18.94-5.86-3.5-9.3-9.98-9.3-16.81v-3.05c0-8.07,4.34-15.71,11.59-19.26,17.21-8.42,34.2,3.89,34.21,20.17v.57" vector-effect="non-scaling-stroke"/><path id="dot-405" class="cls-2" d="M1370.18,1086.84c0,17.03-18.59,29.73-36.59,18.88-5.79-3.49-9.21-9.88-9.21-16.64v-3.23c0-8.02,4.33-15.61,11.53-19.16,17.24-8.48,34.27,3.84,34.27,20.14v1.4" vector-effect="non-scaling-stroke"/><path id="dot-406" class="cls-4" d="M1412.92,1026.89c0,17-18.52,29.68-36.49,18.94-5.86-3.5-9.3-9.98-9.3-16.81v-3.05c0-8.07,4.34-15.71,11.59-19.26,17.21-8.42,34.2,3.89,34.21,20.17v.28" vector-effect="non-scaling-stroke"/><path id="dot-407" class="cls-3" d="M1443.46,1060.15c0,17.03-18.59,29.73-36.59,18.88-5.79-3.49-9.21-9.88-9.21-16.64v-3.23c0-8.02,4.33-15.61,11.53-19.16,17.24-8.48,34.27,3.84,34.27,20.14v.61" vector-effect="non-scaling-stroke"/><path id="dot-408" class="cls-3" d="M1458.72,658.46c0,17.03-18.59,29.73-36.59,18.88-5.79-3.49-9.21-9.88-9.21-16.64v-3.23c0-8.02,4.33-15.61,11.53-19.16,17.24-8.48,34.27,3.84,34.27,20.14,0,0,0-.73,0-.73" vector-effect="non-scaling-stroke"/><path id="dot-409" class="cls-2" d="M1458.72,611.31c0,17.02-18.57,29.71-36.56,18.9-5.81-3.49-9.24-9.91-9.24-16.69v-3.16c0-8.05,4.34-15.66,11.56-19.21,17.22-8.45,34.23,3.86,34.24,20.15v.62" vector-effect="non-scaling-stroke"/><path id="dot-410" class="cls-4" d="M1492.31,921.64c0,17-18.52,29.68-36.49,18.94-5.86-3.5-9.3-9.98-9.3-16.81v-3.05c0-8.07,4.34-15.71,11.59-19.26,17.21-8.42,34.2,3.89,34.21,20.17,0,0,0-1.33,0-1.33" vector-effect="non-scaling-stroke"/><path id="dot-411" class="cls-3" d="M1507.57,828.68c0,17.03-18.59,29.73-36.59,18.88-5.79-3.49-9.21-9.88-9.21-16.64v-3.23c0-8.02,4.33-15.61,11.53-19.16,17.24-8.48,34.27,3.84,34.27,20.14v.03" vector-effect="non-scaling-stroke"/><path id="dot-412" class="cls-3" d="M1513.68,782.15c0,17-18.52,29.68-36.49,18.94-5.86-3.5-9.3-9.98-9.3-16.81v-3.05c0-8.07,4.34-15.71,11.59-19.26,17.21-8.42,34.2,3.89,34.21,20.17v.77" vector-effect="non-scaling-stroke"/><path id="dot-413" class="cls-4" d="M1535.05,901.32c0,17-18.52,29.68-36.49,18.94-5.86-3.5-9.3-9.98-9.3-16.81v-3.05c0-8.07,4.34-15.71,11.59-19.26,17.21-8.42,34.2,3.89,34.21,20.17v.68" vector-effect="non-scaling-stroke"/><path id="dot-414" class="cls-3" d="M1583.9,808.55c0,17-18.52,29.68-36.49,18.94-5.86-3.5-9.3-9.98-9.3-16.81v-3.05c0-8.07,4.34-15.71,11.59-19.26,17.21-8.42,34.2,3.89,34.21,20.17,0,0,0-1.21,0-1.21" vector-effect="non-scaling-stroke"/><path id="dot-415" class="cls-4" d="M1590.01,901.74c0,17.03-18.59,29.73-36.59,18.88-5.79-3.49-9.21-9.88-9.21-16.64v-3.23c0-8.02,4.33-15.61,11.53-19.16,17.24-8.48,34.27,3.84,34.27,20.14v.26" vector-effect="non-scaling-stroke"/><path id="dot-416" class="cls-4" d="M1614.44,774.22c0,17-18.52,29.68-36.49,18.94-5.86-3.5-9.3-9.98-9.3-16.81v-3.05c0-8.07,4.34-15.71,11.59-19.26,17.21-8.42,34.2,3.89,34.21,20.17,0,0,0-.47,0-.47" vector-effect="non-scaling-stroke"/><path id="dot-417" class="cls-1" d="M1638.86,847.48c0,17.03-18.59,29.73-36.59,18.88-5.79-3.49-9.21-9.88-9.21-16.64v-3.23c0-8.02,4.33-15.61,11.53-19.16,17.24-8.48,34.27,3.84,34.27,20.14,0,0,0-.45,0-.45" vector-effect="non-scaling-stroke"/><path id="dot-418" class="cls-4" d="M1657.18,891.48c0,17-18.52,29.68-36.49,18.94-5.86-3.5-9.3-9.98-9.3-16.81v-3.05c0-8.07,4.34-15.71,11.59-19.26,17.21-8.42,34.2,3.89,34.21,20.17v1.36" vector-effect="non-scaling-stroke"/><path id="dot-419" class="cls-3" d="M1672.45,814.23c0,17-18.52,29.68-36.49,18.94-5.86-3.5-9.3-9.98-9.3-16.81v-3.05c0-8.07,4.34-15.71,11.59-19.26,17.21-8.42,34.2,3.89,34.21,20.17,0,0,0-.78,0-.78" vector-effect="non-scaling-stroke"/><path id="dot-576" class="cls-5" d="M1067.91,684.93c0,17.03-18.59,29.73-36.59,18.88-5.79-3.49-9.21-9.88-9.21-16.64v-3.23c0-8.02,4.33-15.61,11.53-19.16,17.24-8.48,34.27,3.84,34.27,20.14v.28" vector-effect="non-scaling-stroke"/><path id="dot-577" class="cls-5" d="M1070.96,1066.33c0,17.03-18.59,29.73-36.59,18.88-5.79-3.49-9.21-9.88-9.21-16.64v-3.23c0-8.02,4.33-15.61,11.53-19.16,17.24-8.48,34.27,3.84,34.27,20.14v.54" vector-effect="non-scaling-stroke"/><path id="dot-578" class="cls-6" d="M1107.6,639.18c0,17-18.52,29.68-36.49,18.94-5.86-3.5-9.3-9.98-9.3-16.81v-3.05c0-8.07,4.34-15.71,11.59-19.26,17.21-8.42,34.2,3.89,34.21,20.17v.23" vector-effect="non-scaling-stroke"/><path id="dot-579" class="cls-5" d="M1128.97,1102.03c0,17.03-18.59,29.73-36.59,18.88-5.79-3.49-9.21-9.88-9.21-16.64v-3.23c0-8.02,4.33-15.61,11.53-19.16,17.24-8.48,34.27,3.84,34.27,20.14v1.47" vector-effect="non-scaling-stroke"/><path id="dot-580" class="cls-6" d="M1135.08,1148.6c0,17.03-18.59,29.73-36.59,18.88-5.79-3.49-9.21-9.88-9.21-16.64v-3.23c0-8.02,4.33-15.61,11.53-19.16,17.24-8.48,34.27,3.84,34.27,20.14v.7" vector-effect="non-scaling-stroke"/><path id="dot-581" class="cls-6" d="M1171.72,1193.14c0,17.03-18.59,29.73-36.59,18.88-5.79-3.49-9.21-9.88-9.21-16.64v-3.23c0-8.02,4.33-15.61,11.53-19.16,17.24-8.48,34.27,3.84,34.27,20.14,0,0,0-1.09,0-1.09" vector-effect="non-scaling-stroke"/><path id="dot-582" class="cls-6" d="M1171.72,487.75c0,17.03-18.59,29.73-36.59,18.88-5.79-3.49-9.21-9.88-9.21-16.64v-3.23c0-8.02,4.33-15.61,11.53-19.16,17.24-8.48,34.27,3.84,34.27,20.14,0,0,0-.99,0-.99" vector-effect="non-scaling-stroke"/><path id="dot-583" class="cls-5" d="M1177.83,1239.88c0,17-18.52,29.68-36.49,18.94-5.86-3.5-9.3-9.98-9.3-16.81v-3.05c0-8.07,4.34-15.71,11.59-19.26,17.21-8.42,34.2,3.89,34.21,20.17v1.02" vector-effect="non-scaling-stroke"/><path id="dot-584" class="cls-2" d="M1205.3,454.01c0,17.02-18.57,29.71-36.56,18.9-5.81-3.49-9.24-9.91-9.24-16.69v-3.16c0-8.05,4.34-15.66,11.56-19.21,17.22-8.45,34.23,3.86,34.24,20.15,0,0,0-.84,0-.84" vector-effect="non-scaling-stroke"/><path id="dot-585" class="cls-2" d="M1266.37,1134.4c0,17-18.52,29.68-36.49,18.94-5.86-3.5-9.3-9.98-9.3-16.81v-3.05c0-8.07,4.34-15.71,11.59-19.26,17.21-8.42,34.2,3.89,34.21,20.17,0,0,0-.36,0-.36" vector-effect="non-scaling-stroke"/><path id="dot-586" class="cls-6" d="M1272.48,1181.27c0,17-18.52,29.68-36.49,18.94-5.86-3.5-9.3-9.98-9.3-16.81v-3.05c0-8.07,4.34-15.71,11.59-19.26,17.21-8.42,34.2,3.89,34.21,20.17,0,0,0-1.43,0-1.43" vector-effect="non-scaling-stroke"/><path id="dot-587" class="cls-2" d="M1275.53,1228.38c0,17.02-18.57,29.71-36.56,18.9-5.81-3.49-9.24-9.91-9.24-16.69v-3.16c0-8.05,4.34-15.66,11.56-19.21,17.22-8.45,34.23,3.86,34.24,20.15v.31" vector-effect="non-scaling-stroke"/><path id="dot-588" class="cls-2" d="M1296.9,1279.81c0,17.03-18.59,29.73-36.59,18.88-5.79-3.49-9.21-9.88-9.21-16.64v-3.23c0-8.02,4.33-15.61,11.53-19.16,17.24-8.48,34.27,3.84,34.27,20.14v.78" vector-effect="non-scaling-stroke"/><path id="dot-589" class="cls-5" d="M1306.06,415.55c0,17-18.52,29.68-36.49,18.94-5.86-3.5-9.3-9.98-9.3-16.81v-3.05c0-8.07,4.34-15.71,11.59-19.26,17.21-8.42,34.2,3.89,34.21,20.17v.98" vector-effect="non-scaling-stroke"/><path id="dot-590" class="cls-2" d="M1318.27,1321.8c0,17-18.52,29.68-36.49,18.94-5.86-3.5-9.3-9.98-9.3-16.81v-3.05c0-8.07,4.34-15.71,11.59-19.26,17.21-8.42,34.2,3.89,34.21,20.17v1.53" vector-effect="non-scaling-stroke"/><path id="dot-591" class="cls-3" d="M1403.76,641.88c0,17-18.52,29.68-36.49,18.94-5.86-3.5-9.3-9.98-9.3-16.81v-3.05c0-8.07,4.34-15.71,11.59-19.26,17.21-8.42,34.2,3.89,34.21,20.17v.59" vector-effect="non-scaling-stroke"/><path id="dot-592" class="cls-3" d="M1412.92,1105.81c0,17.03-18.59,29.73-36.59,18.88-5.79-3.49-9.21-9.88-9.21-16.64v-3.23c0-8.02,4.33-15.61,11.53-19.16,17.24-8.48,34.27,3.84,34.27,20.14v.75" vector-effect="non-scaling-stroke"/><path id="dot-593" class="cls-4" d="M1431.24,572.34c0,17.03-18.59,29.73-36.59,18.88-5.79-3.49-9.21-9.88-9.21-16.64v-3.23c0-8.02,4.33-15.61,11.53-19.16,17.24-8.48,34.27,3.84,34.27,20.14,0,0,0-.1,0-.1" vector-effect="non-scaling-stroke"/><path id="dot-594" class="cls-4" d="M1449.56,1137.54c0,17.03-18.59,29.73-36.59,18.88-5.79-3.49-9.21-9.88-9.21-16.64v-3.23c0-8.02,4.33-15.61,11.53-19.16,17.24-8.48,34.27,3.84,34.27,20.14,0,0,0-.45,0-.45" vector-effect="non-scaling-stroke"/><path id="dot-595" class="cls-3" d="M1461.78,535.12c0,17-18.52,29.68-36.49,18.94-5.86-3.5-9.3-9.98-9.3-16.81v-3.05c0-8.07,4.34-15.71,11.59-19.26,17.21-8.42,34.2,3.89,34.21,20.17v.48" vector-effect="non-scaling-stroke"/><path id="dot-596" class="cls-1" d="M1467.88,1180.42c0,17-18.52,29.68-36.49,18.94-5.86-3.5-9.3-9.98-9.3-16.81v-3.05c0-8.07,4.34-15.71,11.59-19.26,17.21-8.42,34.2,3.89,34.21,20.17,0,0,0-.58,0-.58" vector-effect="non-scaling-stroke"/><path id="dot-597" class="cls-4" d="M1516.73,961.5c0,17.03-18.59,29.73-36.59,18.88-5.79-3.49-9.21-9.88-9.21-16.64v-3.23c0-8.02,4.33-15.61,11.53-19.16,17.24-8.48,34.27,3.84,34.27,20.14,0,0,0-1.49,0-1.49" vector-effect="non-scaling-stroke"/><path id="dot-598" class="cls-4" d="M1528.95,736.65c0,17-18.52,29.68-36.49,18.94-5.86-3.5-9.3-9.98-9.3-16.81v-3.05c0-8.07,4.34-15.71,11.59-19.26,17.21-8.42,34.2,3.89,34.21,20.17v.47" vector-effect="non-scaling-stroke"/><path id="dot-599" class="cls-3" d="M1535.05,1005.32c0,17-18.52,29.68-36.49,18.94-5.86-3.5-9.3-9.98-9.3-16.81v-3.05c0-8.07,4.34-15.71,11.59-19.26,17.21-8.42,34.2,3.89,34.21,20.17v.48" vector-effect="non-scaling-stroke"/><path id="dot-600" class="cls-4" d="M1568.64,944.64c0,17-18.52,29.68-36.49,18.94-5.86-3.5-9.3-9.98-9.3-16.81v-3.05c0-8.07,4.34-15.71,11.59-19.26,17.21-8.42,34.2,3.89,34.21,20.17v.09" vector-effect="non-scaling-stroke"/><path id="dot-601" class="cls-1" d="M1614.44,953.52c0,17-18.52,29.68-36.49,18.94-5.86-3.5-9.3-9.98-9.3-16.81v-3.05c0-8.07,4.34-15.71,11.59-19.26,17.21-8.42,34.2,3.89,34.21,20.17v.38" vector-effect="non-scaling-stroke"/><path id="dot-602" class="cls-1" d="M1657.18,750.96c0,17.03-18.59,29.73-36.59,18.88-5.79-3.49-9.21-9.88-9.21-16.64v-3.23c0-8.02,4.33-15.61,11.53-19.16,17.24-8.48,34.27,3.84,34.27,20.14v1.42" vector-effect="non-scaling-stroke"/><path id="dot-603" class="cls-1" d="M1742.67,854.78c0,17-18.52,29.68-36.49,18.94-5.86-3.5-9.3-9.98-9.3-16.81v-3.05c0-8.07,4.34-15.71,11.59-19.26,17.21-8.42,34.2,3.89,34.21,20.17v1.42" vector-effect="non-scaling-stroke"/><path id="dot-604" class="cls-1" d="M1822.06,854.78c0,17-18.52,29.68-36.49,18.94-5.86-3.5-9.3-9.98-9.3-16.81v-3.05c0-8.07,4.34-15.71,11.59-19.26,17.21-8.42,34.2,3.89,34.21,20.17v1.42" vector-effect="non-scaling-stroke"/><path id="dot-605" class="cls-3" d="M1883.12,854.78c0,17.03-18.59,29.73-36.59,18.88-5.79-3.49-9.21-9.88-9.21-16.64v-3.23c0-8.02,4.33-15.61,11.53-19.16,17.24-8.48,34.27,3.84,34.27,20.14v1.42" vector-effect="non-scaling-stroke"/></g></g></g><g id="Capa_5"><g><path class="cls-14" d="M850.71,1258.74c-219.51-219.52-219.51-575.42,.01-794.93,16.65-16.65,34.34-32.24,52.94-46.68-245.3,190.27-289.9,543.37-99.63,788.66,14.43,18.61,30.02,36.29,46.68,52.94Z"/><path class="cls-13" d="M903.66,417.14c245.29-190.27,598.39-145.67,788.66,99.62,21.66,27.93,40.65,57.84,56.69,89.33-140.94-276.6-479.42-386.58-756.02-245.65-31.49,16.05-61.4,35.03-89.33,56.69Z"/><path class="cls-9" d="M1749.02,606.09c48.42,95.04,68.8,201.89,58.76,308.08,10.04-106.19-10.34-213.04-58.76-308.08Z"/><path class="cls-12" d="M1807.78,914.17c-10.04,106.19-50.09,207.34-115.46,291.62,65.38-84.28,105.42-185.43,115.46-291.62Z"/><path class="cls-8" d="M1692.32,1205.79c-190.27,245.3-543.37,289.9-788.66,99.63-18.61-14.43-36.29-30.02-52.94-46.68,219.52,219.51,575.42,219.51,794.93-.01,16.65-16.65,32.24-34.34,46.68-52.94Z"/><line class="cls-7" x1="651.98" y1="1457.47" x2="1049.44" y2="1060.01"/><line class="cls-7" x1="619.23" y1="1422.83" x2="1038.53" y2="1048.46"/><line class="cls-7" x1="588.5" y1="1386.38" x2="1028.28" y2="1036.31"/><line class="cls-7" x1="559.88" y1="1348.26" x2="1018.74" y2="1023.6"/><line class="cls-7" x1="533.45" y1="1308.58" x2="1009.93" y2="1010.38"/><line class="cls-7" x1="509.32" y1="1267.47" x2="1001.89" y2="996.67"/><line class="cls-7" x1="487.54" y1="1225.06" x2="994.63" y2="982.54"/><line class="cls-7" x1="468.19" y1="1181.49" x2="988.18" y2="968.01"/><line class="cls-7" x1="451.34" y1="1136.89" x2="982.56" y2="953.15"/><line class="cls-7" x1="437.04" y1="1091.42" x2="977.8" y2="937.99"/><line class="cls-7" x1="425.33" y1="1045.2" x2="973.89" y2="922.59"/><line class="cls-7" x1="416.25" y1="998.4" x2="970.87" y2="906.99"/><line class="cls-7" x1="409.83" y1="951.17" x2="968.73" y2="891.24"/><line class="cls-7" x1="406.09" y1="903.64" x2="967.48" y2="875.4"/><line class="cls-7" x1="405.04" y1="855.98" x2="967.13" y2="859.51"/><line class="cls-7" x1="406.69" y1="808.33" x2="967.68" y2="843.63"/><line class="cls-7" x1="411.02" y1="760.86" x2="969.12" y2="827.8"/><line class="cls-7" x1="418.04" y1="713.71" x2="971.46" y2="812.09"/><line class="cls-7" x1="427.71" y1="667.02" x2="974.68" y2="796.53"/><line class="cls-7" x1="440" y1="620.96" x2="978.78" y2="781.17"/><line class="cls-7" x1="454.87" y1="575.67" x2="983.74" y2="766.07"/><line class="cls-7" x1="472.28" y1="531.29" x2="989.54" y2="751.28"/><line class="cls-7" x1="492.17" y1="487.96" x2="996.17" y2="736.84"/><line class="cls-7" x1="514.48" y1="445.83" x2="1003.61" y2="722.8"/><line class="cls-7" x1="539.13" y1="405.03" x2="1011.83" y2="709.19"/><line class="cls-7" x1="566.05" y1="365.68" x2="1020.8" y2="696.08"/><line class="cls-7" x1="595.15" y1="327.92" x2="1030.5" y2="683.49"/><line class="cls-7" x1="626.34" y1="291.87" x2="1040.9" y2="671.47"/><line class="cls-7" x1="659.52" y1="257.63" x2="1051.95" y2="660.06"/><line class="cls-7" x1="694.57" y1="225.33" x2="1063.64" y2="649.29"/><line class="cls-15" x1="731.4" y1="195.06" x2="1075.92" y2="639.2"/><line class="cls-15" x1="771.34" y1="165.91" x2="1089.23" y2="629.49"/><line class="cls-15" x1="812.91" y1="139.16" x2="1103.09" y2="620.57"/><line class="cls-15" x1="855.98" y1="114.89" x2="1117.44" y2="612.48"/><line class="cls-15" x1="900.4" y1="93.19" x2="1132.25" y2="605.25"/><line class="cls-15" x1="946.02" y1="74.13" x2="1147.46" y2="598.89"/><line class="cls-15" x1="992.67" y1="57.77" x2="1163.01" y2="593.44"/><line class="cls-15" x1="1040.2" y1="44.18" x2="1178.85" y2="588.91"/><line class="cls-15" x1="1088.45" y1="33.39" x2="1194.93" y2="585.32"/><line class="cls-15" x1="1137.25" y1="25.45" x2="1211.2" y2="582.67"/><line class="cls-15" x1="1186.42" y1="20.39" x2="1227.59" y2="580.98"/><line class="cls-15" x1="1235.81" y1="18.22" x2="1244.05" y2="580.26"/><line class="cls-15" x1="1285.25" y1="18.94" x2="1260.53" y2="580.5"/><line class="cls-15" x1="1334.55" y1="22.56" x2="1276.97" y2="581.7"/><line class="cls-15" x1="1383.56" y1="29.07" x2="1293.3" y2="583.87"/><line class="cls-15" x1="1432.1" y1="38.43" x2="1309.48" y2="586.99"/><line class="cls-15" x1="1480.01" y1="50.63" x2="1325.45" y2="591.06"/><line class="cls-15" x1="1527.13" y1="65.61" x2="1341.16" y2="596.05"/><line class="cls-15" x1="1573.28" y1="83.32" x2="1356.54" y2="601.96"/><line class="cls-15" x1="1618.32" y1="103.72" x2="1371.56" y2="608.76"/><line class="cls-15" x1="1662.08" y1="126.71" x2="1386.14" y2="616.42"/><line class="cls-15" x1="1704.42" y1="152.23" x2="1400.26" y2="624.93"/><line class="cls-15" x1="1745.19" y1="180.19" x2="1413.85" y2="634.25"/><line class="cls-15" x1="1784.26" y1="210.49" x2="1426.87" y2="644.35"/><line class="cls-15" x1="1821.48" y1="243.03" x2="1439.28" y2="655.19"/><line class="cls-15" x1="1856.73" y1="277.7" x2="1451.03" y2="666.75"/><line class="cls-15" x1="1889.89" y1="314.37" x2="1462.08" y2="678.97"/><line class="cls-15" x1="1920.84" y1="352.92" x2="1472.4" y2="691.82"/><line class="cls-15" x1="1949.47" y1="393.21" x2="1481.94" y2="705.26"/><line class="cls-15" x1="1975.7" y1="435.12" x2="1490.68" y2="719.22"/><line class="cls-16" x1="1832.48" y1="563.56" x2="1665.54" y2="648.62"/><line class="cls-16" x1="1848.38" y1="597.06" x2="1676.89" y2="672.55"/><line class="cls-16" x1="1862.35" y1="631.4" x2="1686.87" y2="697.08"/><line class="cls-16" x1="1874.36" y1="666.48" x2="1695.45" y2="722.14"/><line class="cls-16" x1="1884.37" y1="702.18" x2="1702.6" y2="747.64"/><line class="cls-16" x1="1892.34" y1="738.39" x2="1708.3" y2="773.5"/><line class="cls-16" x1="1898.26" y1="775" x2="1712.52" y2="799.65"/><line class="cls-16" x1="1902.1" y1="811.88" x2="1715.26" y2="825.99"/><line class="cls-16" x1="1903.84" y1="848.92" x2="1716.51" y2="852.45"/><line class="cls-16" x1="1903.49" y1="885.99" x2="1716.26" y2="878.93"/><line class="cls-10" x1="1901.05" y1="922.99" x2="1714.51" y2="905.36"/><line class="cls-10" x1="1896.52" y1="959.79" x2="1711.28" y2="931.64"/><line class="cls-10" x1="1889.91" y1="996.28" x2="1706.56" y2="957.71"/><line class="cls-10" x1="1881.26" y1="1032.33" x2="1700.38" y2="983.46"/><line class="cls-10" x1="1870.58" y1="1067.84" x2="1692.75" y2="1008.82"/><line class="cls-10" x1="1857.91" y1="1102.69" x2="1683.7" y2="1033.71"/><line class="cls-10" x1="1843.29" y1="1136.76" x2="1673.26" y2="1058.05"/><line class="cls-10" x1="1826.77" y1="1169.96" x2="1661.46" y2="1081.76"/><line class="cls-10" x1="1808.4" y1="1202.16" x2="1648.33" y2="1104.77"/><line class="cls-10" x1="1788.23" y1="1233.28" x2="1633.93" y2="1127"/><line class="cls-11" x1="1914.4" y1="1378.05" x2="1470.25" y2="1033.53"/><line class="cls-11" x1="1884.12" y1="1414.88" x2="1460.16" y2="1045.81"/><line class="cls-11" x1="1851.82" y1="1449.94" x2="1449.39" y2="1057.5"/><line class="cls-11" x1="1817.58" y1="1483.11" x2="1437.98" y2="1068.56"/><line class="cls-11" x1="1781.53" y1="1514.3" x2="1425.96" y2="1078.95"/><line class="cls-11" x1="1743.77" y1="1543.4" x2="1413.37" y2="1088.65"/><line class="cls-11" x1="1704.42" y1="1570.32" x2="1400.26" y2="1097.62"/><line class="cls-11" x1="1663.62" y1="1594.97" x2="1386.66" y2="1105.84"/><line class="cls-11" x1="1621.49" y1="1617.28" x2="1372.61" y2="1113.28"/><line class="cls-11" x1="1578.16" y1="1637.17" x2="1358.17" y2="1119.91"/><line class="cls-11" x1="1533.78" y1="1654.58" x2="1343.38" y2="1125.71"/><line class="cls-11" x1="1488.49" y1="1669.46" x2="1328.28" y2="1130.67"/><line class="cls-11" x1="1442.43" y1="1681.75" x2="1312.93" y2="1134.77"/><line class="cls-11" x1="1395.75" y1="1691.41" x2="1297.37" y2="1137.99"/><line class="cls-11" x1="1348.59" y1="1698.43" x2="1281.65" y2="1140.33"/><line class="cls-11" x1="1301.12" y1="1702.76" x2="1265.82" y2="1141.77"/><line class="cls-11" x1="1253.47" y1="1704.41" x2="1249.94" y2="1142.32"/><line class="cls-11" x1="1205.81" y1="1703.36" x2="1234.05" y2="1141.97"/><line class="cls-11" x1="1158.29" y1="1699.62" x2="1218.21" y2="1140.73"/><line class="cls-11" x1="1111.05" y1="1693.2" x2="1202.47" y2="1138.59"/><line class="cls-11" x1="1064.25" y1="1684.12" x2="1186.87" y2="1135.56"/><line class="cls-11" x1="1018.03" y1="1672.41" x2="1171.46" y2="1131.65"/><line class="cls-11" x1="972.56" y1="1658.11" x2="1156.3" y2="1126.89"/><line class="cls-11" x1="927.96" y1="1641.26" x2="1141.44" y2="1121.27"/><line class="cls-11" x1="884.39" y1="1621.91" x2="1126.91" y2="1114.82"/><line class="cls-11" x1="841.98" y1="1600.14" x2="1112.78" y2="1107.56"/><line class="cls-11" x1="800.87" y1="1576" x2="1099.07" y2="1099.52"/><line class="cls-11" x1="761.19" y1="1549.57" x2="1085.85" y2="1090.71"/><line class="cls-11" x1="723.07" y1="1520.95" x2="1073.14" y2="1081.17"/><line class="cls-11" x1="686.63" y1="1490.22" x2="1060.99" y2="1070.92"/></g></g><g id="Capa_25"><text class="cls-20" transform="translate(1108.86 865.4)"><tspan class="cls-23" x="0" y="0">Omar Galdá</tspan><tspan class="cls-17" x="316.89" y="0">m</tspan><tspan class="cls-18" x="369.36" y="0">e</tspan><tspan class="cls-21" x="401.23" y="0">z</tspan></text></g></g></svg>